<svg width="113" height="14" viewBox="0 0 113 14" fill="none" xmlns="http://www.w3.org/2000/svg">
<path d="M5.91081 1.864L2.40681 12.616V12.6C2.34281 12.76 2.25215 12.8933 2.13481 13C2.02815 13.096 1.89481 13.144 1.73481 13.144C1.64948 13.144 1.56415 13.1333 1.47881 13.112C1.40415 13.1013 1.32415 13.0853 1.23881 13.064H1.25481C0.646813 12.872 0.422813 12.5307 0.582813 12.04L4.23081 0.952C4.28415 0.781333 4.37481 0.637333 4.50281 0.52C4.64148 0.402666 4.80148 0.333333 4.98281 0.311999C5.16415 0.279999 5.34015 0.258666 5.51081 0.247999C5.68148 0.226666 5.81481 0.216 5.91081 0.216C6.00681 0.216 6.14015 0.226666 6.31081 0.247999C6.48148 0.258666 6.65748 0.274666 6.83881 0.296C6.98815 0.317333 7.13215 0.397333 7.27081 0.535999C7.42015 0.674666 7.53215 0.813333 7.60681 0.952C8.20415 2.78667 8.80681 4.63733 9.41481 6.504C10.0335 8.36 10.6415 10.2053 11.2388 12.04C11.3881 12.5307 11.1641 12.872 10.5668 13.064C10.4815 13.0853 10.4015 13.1013 10.3268 13.112C10.2628 13.1333 10.1881 13.144 10.1028 13.144C9.95348 13.144 9.81481 13.096 9.68681 13C9.56948 12.8933 9.48415 12.76 9.43081 12.6V12.616L5.91081 1.864ZM7.11081 9.16C7.11081 9.50133 6.98815 9.79467 6.74281 10.04C6.50815 10.2747 6.22015 10.392 5.87881 10.392C5.53748 10.392 5.24948 10.2747 5.01481 10.04C4.78015 9.79467 4.66281 9.50133 4.66281 9.16C4.66281 8.81867 4.78015 8.53067 5.01481 8.296C5.24948 8.05067 5.53748 7.928 5.87881 7.928C6.22015 7.928 6.50815 8.05067 6.74281 8.296C6.98815 8.53067 7.11081 8.81867 7.11081 9.16ZM15.9516 13.096C15.9302 13.096 15.9036 13.0907 15.8716 13.08C15.8396 13.08 15.8076 13.08 15.7756 13.08C15.7222 13.08 15.6476 13.08 15.5516 13.08C15.4556 13.08 15.3649 13.0747 15.2796 13.064C15.0982 13.0533 14.9436 13.0053 14.8156 12.92C14.6876 12.824 14.5969 12.712 14.5436 12.584L11.8556 4.328C11.8022 4.104 11.8289 3.90667 11.9356 3.736C12.0529 3.55467 12.2342 3.42133 12.4796 3.336C12.5542 3.31467 12.6289 3.29867 12.7036 3.288C12.7782 3.27733 12.8422 3.272 12.8956 3.272C13.2262 3.272 13.4556 3.45333 13.5836 3.816L14.7516 7.448L15.9836 11.256L18.3836 3.816C18.5009 3.44267 18.7142 3.256 19.0236 3.256C19.1409 3.256 19.2902 3.28267 19.4716 3.336C19.7489 3.41067 19.9409 3.53867 20.0476 3.72C20.1542 3.89067 20.1702 4.09333 20.0956 4.328L17.4236 12.584C17.3276 12.8827 17.0769 13.0427 16.6716 13.064C16.6502 13.064 16.6236 13.064 16.5916 13.064C16.5702 13.0747 16.5489 13.08 16.5276 13.08C16.4422 13.0907 16.3676 13.096 16.3036 13.096C16.2396 13.096 16.1809 13.096 16.1276 13.096H15.9516ZM23.4837 12.328C23.4837 12.84 23.1904 13.096 22.6037 13.096C22.0064 13.096 21.7077 12.84 21.7077 12.328V4.072C21.7077 3.56 22.0064 3.304 22.6037 3.304C23.1904 3.304 23.4837 3.56 23.4837 4.072V12.328ZM23.8197 1.288C23.8197 1.62933 23.7024 1.91733 23.4677 2.152C23.233 2.38667 22.945 2.504 22.6037 2.504C22.2624 2.504 21.969 2.38667 21.7237 2.152C21.489 1.91733 21.3717 1.62933 21.3717 1.288C21.3717 0.935999 21.489 0.642666 21.7237 0.407999C21.969 0.173333 22.2624 0.0559998 22.6037 0.0559998C22.945 0.0559998 23.233 0.173333 23.4677 0.407999C23.7024 0.642666 23.8197 0.935999 23.8197 1.288ZM28.2829 13C27.9523 13 27.6376 12.9573 27.3389 12.872C27.0403 12.776 26.7523 12.6427 26.4749 12.472V12.488C25.9523 12.1573 25.6909 11.5493 25.6909 10.664V9.88C25.6909 9.44267 25.7656 9.064 25.9149 8.744C26.0749 8.41333 26.2936 8.152 26.5709 7.96H26.5549C26.8216 7.77867 27.1043 7.64533 27.4029 7.56C27.7016 7.464 27.9896 7.416 28.2669 7.416H31.8029V5.928C31.8029 5.66133 31.7176 5.42133 31.5469 5.208C31.3869 4.984 31.1096 4.872 30.7149 4.872H28.8429C28.4376 4.872 28.1549 4.97333 27.9949 5.176C27.8456 5.368 27.7709 5.59733 27.7709 5.864V5.992C27.7709 6.54667 27.4723 6.824 26.8749 6.824C26.2776 6.824 25.9789 6.54667 25.9789 5.992V5.848C25.9789 5.41067 26.0536 5.04267 26.2029 4.744C26.3629 4.44533 26.5763 4.19467 26.8429 3.992H26.8269C27.1043 3.81067 27.3923 3.66133 27.6909 3.544C28.0003 3.42667 28.2936 3.368 28.5709 3.368H31.0029C31.2696 3.368 31.5523 3.42667 31.8509 3.544C32.1603 3.66133 32.4483 3.81067 32.7149 3.992H32.6989C32.9763 4.19467 33.1896 4.46133 33.3389 4.792C33.4883 5.112 33.5629 5.48533 33.5629 5.912V12.328C33.5629 12.84 33.2696 13.096 32.6829 13.096C32.5656 13.096 32.4536 13.0907 32.3469 13.08C32.2509 13.0693 32.1603 13.0427 32.0749 13C32.0003 12.9467 31.9363 12.8773 31.8829 12.792C31.8403 12.696 31.8189 12.5733 31.8189 12.424L31.8029 8.92H28.5709C28.3363 8.92 28.1549 8.94667 28.0269 9C27.8989 9.05333 27.7976 9.13867 27.7229 9.256C27.6376 9.43733 27.5736 9.58133 27.5309 9.688C27.4989 9.784 27.4829 9.896 27.4829 10.024V10.648C27.4829 10.9253 27.5629 11.1387 27.7229 11.288C27.8936 11.4267 28.1816 11.496 28.5869 11.496H30.3789C30.7736 11.496 30.9709 11.7467 30.9709 12.248C30.9709 12.4613 30.9229 12.6427 30.8269 12.792C30.7309 12.9307 30.5816 13 30.3789 13H28.2829ZM37.8886 4.872V10.696C37.8886 10.9733 37.9472 11.1867 38.0646 11.336C38.1819 11.4853 38.4326 11.56 38.8166 11.56H39.2326C39.6486 11.56 39.8459 11.8053 39.8246 12.296C39.8246 12.7973 39.6272 13.048 39.2326 13.048H38.7046C38.3632 13.048 38.0432 13.0053 37.7446 12.92C37.4459 12.824 37.1579 12.6907 36.8806 12.52V12.536C36.3579 12.1947 36.0966 11.5867 36.0966 10.712V4.872H35.4726C35.0886 4.872 34.8859 4.62133 34.8646 4.12C34.8646 3.61867 35.0672 3.368 35.4726 3.368H36.0966V1.656C36.0966 1.144 36.4006 0.888 37.0086 0.888C37.5952 0.888 37.8886 1.144 37.8886 1.656V3.368H39.2166C39.6326 3.368 39.8299 3.61867 39.8086 4.12C39.8086 4.62133 39.6112 4.872 39.2166 4.872H37.8886ZM43.1824 12.328C43.1824 12.84 42.8891 13.096 42.3024 13.096C41.7051 13.096 41.4064 12.84 41.4064 12.328V4.072C41.4064 3.56 41.7051 3.304 42.3024 3.304C42.8891 3.304 43.1824 3.56 43.1824 4.072V12.328ZM43.5184 1.288C43.5184 1.62933 43.4011 1.91733 43.1664 2.152C42.9318 2.38667 42.6438 2.504 42.3024 2.504C41.9611 2.504 41.6678 2.38667 41.4224 2.152C41.1878 1.91733 41.0704 1.62933 41.0704 1.288C41.0704 0.935999 41.1878 0.642666 41.4224 0.407999C41.6678 0.173333 41.9611 0.0559998 42.3024 0.0559998C42.6438 0.0559998 42.9318 0.173333 43.1664 0.407999C43.4011 0.642666 43.5184 0.935999 43.5184 1.288ZM50.6857 3.368C50.963 3.368 51.2457 3.42667 51.5337 3.544C51.8324 3.66133 52.1204 3.81067 52.3977 3.992H52.3817C52.659 4.19467 52.8724 4.46133 53.0217 4.792C53.171 5.112 53.2457 5.48533 53.2457 5.912V10.456C53.2457 11.3307 52.9577 11.976 52.3817 12.392C51.8164 12.7973 51.251 13 50.6857 13H48.1257C47.8484 13 47.5657 12.952 47.2777 12.856C46.9897 12.76 46.707 12.6053 46.4297 12.392C45.8537 11.9867 45.5657 11.3413 45.5657 10.456V5.912C45.5657 5.48533 45.6404 5.112 45.7897 4.792C45.939 4.46133 46.1524 4.19467 46.4297 3.992H46.4137C46.6804 3.81067 46.963 3.66133 47.2617 3.544C47.5604 3.42667 47.8484 3.368 48.1257 3.368H50.6857ZM50.3977 11.496C50.7924 11.496 51.0697 11.384 51.2297 11.16C51.4004 10.936 51.4857 10.696 51.4857 10.44V5.928C51.4857 5.66133 51.4004 5.42133 51.2297 5.208C51.0697 4.984 50.7924 4.872 50.3977 4.872H48.4137C48.019 4.872 47.7364 4.984 47.5657 5.208C47.4057 5.42133 47.3257 5.66133 47.3257 5.928V10.44C47.3257 10.696 47.4057 10.936 47.5657 11.16C47.7364 11.384 48.019 11.496 48.4137 11.496H50.3977ZM57.1888 12.328C57.1888 12.84 56.8955 13.096 56.3088 13.096C55.7221 13.096 55.4288 12.84 55.4288 12.328V5.896C55.4288 5.45867 55.4981 5.08 55.6368 4.76C55.7755 4.44 55.9941 4.17867 56.2928 3.976C56.8581 3.57067 57.4235 3.368 57.9888 3.368H60.5648C61.1088 3.368 61.6741 3.57067 62.2608 3.976C62.8368 4.38133 63.1248 5.02133 63.1248 5.896V12.328C63.1248 12.84 62.8315 13.096 62.2448 13.096C61.6581 13.096 61.3648 12.84 61.3648 12.328V6.04C61.3648 5.76267 61.2795 5.496 61.1088 5.24L61.1248 5.256C60.9861 5 60.7035 4.872 60.2768 4.872H58.2768C57.8395 4.872 57.5515 5 57.4128 5.256C57.2635 5.48 57.1888 5.74133 57.1888 6.04V12.328Z" fill="black"/>
<path d="M72.1384 8.28C72.1384 8.03467 72.0478 7.8 71.8664 7.576C71.6851 7.34133 71.3651 7.208 70.9064 7.176C70.6078 7.53867 70.2451 7.72 69.8184 7.72C69.4558 7.72 69.1464 7.592 68.8904 7.336C68.6344 7.08 68.5064 6.76533 68.5064 6.392C68.5064 6.01867 68.6344 5.704 68.8904 5.448C69.1464 5.192 69.4558 5.064 69.8184 5.064C70.0104 5.064 70.1971 5.11733 70.3784 5.224C70.5704 5.33067 70.7411 5.45867 70.8904 5.608C71.1251 5.59733 71.3064 5.56 71.4344 5.496C71.5624 5.432 71.6531 5.35733 71.7064 5.272C71.7704 5.176 71.8078 5.06933 71.8184 4.952C71.8291 4.83467 71.8344 4.71733 71.8344 4.6V2.984C71.8344 2.71733 71.7491 2.472 71.5784 2.248C71.4184 2.024 71.1411 1.912 70.7464 1.912H67.4024L67.3864 12.472C67.3864 12.6853 67.2851 12.8507 67.0824 12.968C66.8904 13.0747 66.6771 13.128 66.4424 13.128C65.8131 13.128 65.4984 12.872 65.4984 12.36V1.256C65.4984 0.871999 65.5944 0.615999 65.7864 0.487999C65.9891 0.359999 66.2291 0.296 66.5064 0.296H71.1464C71.4238 0.296 71.7171 0.349333 72.0264 0.455999C72.3464 0.562666 72.6451 0.706666 72.9224 0.888H72.9064C73.1838 1.09067 73.3864 1.35733 73.5144 1.688C73.6531 2.01867 73.7224 2.40267 73.7224 2.84V4.648C73.7224 5.07467 73.6318 5.42667 73.4504 5.704C73.2691 5.97067 73.0771 6.184 72.8744 6.344C73.0131 6.42933 73.1464 6.52 73.2744 6.616C73.4024 6.70133 73.5091 6.79733 73.5944 6.904C73.7331 7.05333 73.8398 7.22933 73.9144 7.432C73.9998 7.63467 74.0424 7.87467 74.0424 8.152V10.44C74.0424 11.3147 73.7011 11.96 73.0184 12.376C72.6771 12.5893 72.3518 12.7493 72.0424 12.856C71.7438 12.9627 71.4451 13.016 71.1464 13.016H68.7784C68.5971 13.016 68.4531 12.9413 68.3464 12.792C68.2504 12.6427 68.2024 12.4453 68.2024 12.2C68.2024 11.6667 68.4264 11.4 68.8744 11.4H71.0664C71.4611 11.4 71.7384 11.288 71.8984 11.064C72.0584 10.84 72.1384 10.5893 72.1384 10.312V8.28ZM81.5719 3.368C81.8493 3.368 82.1319 3.42667 82.4199 3.544C82.7186 3.66133 83.0066 3.81067 83.2839 3.992H83.2679C83.5453 4.19467 83.7586 4.46133 83.9079 4.792C84.0573 5.112 84.1319 5.48533 84.1319 5.912V10.456C84.1319 11.3307 83.8439 11.976 83.2679 12.392C82.7026 12.7973 82.1373 13 81.5719 13H79.0119C78.7346 13 78.4519 12.952 78.1639 12.856C77.8759 12.76 77.5933 12.6053 77.3159 12.392C76.7399 11.9867 76.4519 11.3413 76.4519 10.456V5.912C76.4519 5.48533 76.5266 5.112 76.6759 4.792C76.8253 4.46133 77.0386 4.19467 77.3159 3.992H77.2999C77.5666 3.81067 77.8493 3.66133 78.1479 3.544C78.4466 3.42667 78.7346 3.368 79.0119 3.368H81.5719ZM81.2839 11.496C81.6786 11.496 81.9559 11.384 82.1159 11.16C82.2866 10.936 82.3719 10.696 82.3719 10.44V5.928C82.3719 5.66133 82.2866 5.42133 82.1159 5.208C81.9559 4.984 81.6786 4.872 81.2839 4.872H79.2999C78.9053 4.872 78.6226 4.984 78.4519 5.208C78.2919 5.42133 78.2119 5.66133 78.2119 5.928V10.44C78.2119 10.696 78.2919 10.936 78.4519 11.16C78.6226 11.384 78.9053 11.496 79.2999 11.496H81.2839ZM91.4351 3.368C91.7124 3.368 91.9951 3.42667 92.2831 3.544C92.5817 3.66133 92.8697 3.81067 93.1471 3.992H93.1311C93.4084 4.19467 93.6217 4.46133 93.7711 4.792C93.9204 5.112 93.9951 5.48533 93.9951 5.912V10.456C93.9951 11.3307 93.7071 11.976 93.1311 12.392C92.5657 12.7973 92.0004 13 91.4351 13H88.8751C88.5977 13 88.3151 12.952 88.0271 12.856C87.7391 12.76 87.4564 12.6053 87.1791 12.392C86.6031 11.9867 86.3151 11.3413 86.3151 10.456V5.912C86.3151 5.48533 86.3897 5.112 86.5391 4.792C86.6884 4.46133 86.9017 4.19467 87.1791 3.992H87.1631C87.4297 3.81067 87.7124 3.66133 88.0111 3.544C88.3097 3.42667 88.5977 3.368 88.8751 3.368H91.4351ZM91.1471 11.496C91.5417 11.496 91.8191 11.384 91.9791 11.16C92.1497 10.936 92.2351 10.696 92.2351 10.44V5.928C92.2351 5.66133 92.1497 5.42133 91.9791 5.208C91.8191 4.984 91.5417 4.872 91.1471 4.872H89.1631C88.7684 4.872 88.4857 4.984 88.3151 5.208C88.1551 5.42133 88.0751 5.66133 88.0751 5.928V10.44C88.0751 10.696 88.1551 10.936 88.3151 11.16C88.4857 11.384 88.7684 11.496 89.1631 11.496H91.1471ZM97.9382 10.328V12.36C97.9382 12.8613 97.6449 13.112 97.0582 13.112C96.4715 13.112 96.1782 12.8613 96.1782 12.36V0.967999C96.1782 0.456 96.4715 0.2 97.0582 0.2C97.6449 0.2 97.9382 0.456 97.9382 0.967999V7.752C98.2049 7.432 98.4982 7.09067 98.8182 6.728C99.1489 6.35467 99.4742 5.98133 99.7942 5.608C100.125 5.224 100.45 4.85067 100.77 4.488C101.09 4.11467 101.389 3.768 101.666 3.448V3.464C101.858 3.24 102.05 3.128 102.242 3.128C102.349 3.128 102.45 3.15467 102.546 3.208C102.653 3.25067 102.765 3.31467 102.882 3.4H102.866C103.122 3.61333 103.25 3.82667 103.25 4.04C103.25 4.11467 103.234 4.2 103.202 4.296C103.17 4.38133 103.117 4.456 103.042 4.52L97.9382 10.328ZM103.282 11.928C103.357 12.0667 103.394 12.2107 103.394 12.36C103.394 12.6373 103.234 12.8453 102.914 12.984C102.701 13.112 102.509 13.176 102.338 13.176C102.221 13.176 102.109 13.1333 102.002 13.048C101.896 12.9733 101.81 12.8773 101.746 12.76L100.146 9.672C100.05 9.512 100.002 9.352 100.002 9.192C100.002 8.92533 100.141 8.70133 100.418 8.52C100.493 8.46667 100.568 8.41867 100.642 8.376C100.728 8.33333 100.818 8.30133 100.914 8.28C101.032 8.25867 101.144 8.28 101.25 8.344C101.357 8.408 101.448 8.49333 101.522 8.6L103.282 11.928ZM110.069 7.4C110.336 7.4 110.619 7.464 110.917 7.592C111.227 7.70933 111.515 7.85867 111.781 8.04H111.765C112.043 8.24267 112.256 8.504 112.405 8.824C112.555 9.144 112.629 9.528 112.629 9.976V10.456C112.629 11.3307 112.341 11.976 111.765 12.392C111.488 12.6053 111.205 12.76 110.917 12.856C110.629 12.952 110.347 13 110.069 13H107.349C107.072 13 106.789 12.952 106.501 12.856C106.213 12.76 105.931 12.6053 105.653 12.392C105.077 11.9867 104.789 11.3413 104.789 10.456V10.264C104.789 9.80533 105.083 9.58133 105.669 9.592C106.267 9.592 106.565 9.816 106.565 10.264V10.44C106.565 10.696 106.645 10.936 106.805 11.16C106.965 11.384 107.248 11.496 107.653 11.496H109.765C110.171 11.496 110.453 11.384 110.613 11.16C110.773 10.936 110.853 10.696 110.853 10.44V9.992C110.853 9.85333 110.832 9.72 110.789 9.592C110.757 9.464 110.699 9.352 110.613 9.256C110.528 9.14933 110.416 9.064 110.277 9C110.139 8.936 109.968 8.904 109.765 8.904H107.429C106.885 8.904 106.315 8.712 105.717 8.328C105.152 7.96533 104.869 7.34133 104.869 6.456V5.912C104.869 5.48533 104.944 5.112 105.093 4.792C105.243 4.46133 105.456 4.19467 105.733 3.992H105.717C105.984 3.81067 106.267 3.66133 106.565 3.544C106.864 3.42667 107.152 3.368 107.429 3.368H109.989C110.267 3.368 110.549 3.42667 110.837 3.544C111.136 3.66133 111.424 3.81067 111.701 3.992H111.685C111.963 4.19467 112.176 4.46133 112.325 4.792C112.475 5.112 112.549 5.48533 112.549 5.912V6.056C112.549 6.28 112.475 6.44533 112.325 6.552C112.176 6.648 111.957 6.70133 111.669 6.712C111.083 6.72267 110.789 6.504 110.789 6.056V5.928C110.789 5.66133 110.704 5.42133 110.533 5.208C110.373 4.984 110.096 4.872 109.701 4.872H107.717C107.323 4.872 107.04 4.984 106.869 5.208C106.709 5.42133 106.629 5.66133 106.629 5.928V6.312C106.629 6.58933 106.709 6.84 106.869 7.064C107.04 7.288 107.323 7.4 107.717 7.4H110.069Z" fill="#7D35F5"/>
</svg>
