<svg width="15" height="14" viewBox="0 0 15 14" fill="none" xmlns="http://www.w3.org/2000/svg">
<g clip-path="url(#clip0_239_1571)">
<path d="M5.16675 9.91669L7.50008 12.25L9.83341 9.91669" stroke="#F5F5F5" stroke-opacity="0.95" stroke-linecap="round" stroke-linejoin="round"/>
<path d="M7.5 7V12.25" stroke="#F5F5F5" stroke-opacity="0.95" stroke-linecap="round" stroke-linejoin="round"/>
<path d="M12.68 10.5525C13.1872 10.1959 13.5675 9.68694 13.7658 9.09953C13.9641 8.51211 13.97 7.87678 13.7828 7.28575C13.5955 6.69472 13.2248 6.17874 12.7244 5.81268C12.224 5.44662 11.62 5.24954 11 5.25002H10.265C10.0896 4.56628 9.76131 3.93125 9.30493 3.39274C8.84854 2.85422 8.27594 2.42626 7.63023 2.14106C6.98451 1.85587 6.28251 1.72087 5.57708 1.74624C4.87164 1.77161 4.18115 1.95668 3.55759 2.28752C2.93403 2.61836 2.39365 3.08635 1.97713 3.65626C1.56061 4.22616 1.2788 4.88313 1.15292 5.57771C1.02705 6.27229 1.06038 6.98637 1.25041 7.6662C1.44044 8.34603 1.78222 8.9739 2.25002 9.50252" stroke="#F5F5F5" stroke-opacity="0.95" stroke-linecap="round" stroke-linejoin="round"/>
</g>
<defs>
<clipPath id="clip0_239_1571">
<rect width="14" height="14" fill="white" transform="translate(0.5)"/>
</clipPath>
</defs>
</svg>
