<?xml version="1.0" encoding="UTF-8"?>
<svg xmlns="http://www.w3.org/2000/svg" xmlns:xlink="http://www.w3.org/1999/xlink" viewBox="0 0 240 240" width="240px" height="240px">
<g id="surface210148765">
<path style=" stroke:none;fill-rule:nonzero;fill:rgb(0%,45.490196%,70.980394%);fill-opacity:1;" d="M 42.105469 70 L 42.363281 70 C 56.316406 70 65 60 65 47.5 C 64.738281 34.726562 56.316406 25 42.628906 25 C 28.945312 25 20 34.726562 20 47.5 C 20 60 28.679688 70 42.105469 70 Z M 20 85 L 65 85 L 65 215 L 20 215 Z M 220 132.5 C 220 106.265625 198.734375 85 172.5 85 C 157.234375 85 143.691406 92.230469 135 103.421875 L 135 85 L 90 85 L 90 215 L 135 215 L 135 140 C 135 128.953125 143.953125 120 155 120 C 166.046875 120 175 128.953125 175 140 L 175 215 L 220 215 C 220 215 220 139.773438 220 132.5 Z M 220 132.5 "/>
</g>
</svg>
