<svg width="296" height="35" viewBox="0 0 296 35" fill="none" xmlns="http://www.w3.org/2000/svg">
<path d="M14.8909 5.268L5.69288 33.492V33.45C5.52488 33.87 5.28688 34.22 4.97888 34.5C4.69888 34.752 4.34888 34.878 3.92888 34.878C3.70488 34.878 3.48088 34.85 3.25688 34.794C3.06088 34.766 2.85088 34.724 2.62688 34.668H2.66888C1.07288 34.164 0.484879 33.268 0.904879 31.98L10.4809 2.874C10.6209 2.426 10.8589 2.048 11.1949 1.74C11.5589 1.432 11.9789 1.25 12.4549 1.194C12.9309 1.11 13.3929 1.054 13.8409 1.026C14.2889 0.969999 14.6389 0.941999 14.8909 0.941999C15.1429 0.941999 15.4929 0.969999 15.9409 1.026C16.3889 1.054 16.8509 1.096 17.3269 1.152C17.7189 1.208 18.0969 1.418 18.4609 1.782C18.8529 2.146 19.1469 2.51 19.3429 2.874C20.9109 7.69 22.4929 12.548 24.0889 17.448C25.7129 22.32 27.3089 27.164 28.8769 31.98C29.2689 33.268 28.6809 34.164 27.1129 34.668C26.8889 34.724 26.6789 34.766 26.4829 34.794C26.3149 34.85 26.1189 34.878 25.8949 34.878C25.5029 34.878 25.1389 34.752 24.8029 34.5C24.4949 34.22 24.2709 33.87 24.1309 33.45V33.492L14.8909 5.268ZM18.0409 24.42C18.0409 25.316 17.7189 26.086 17.0749 26.73C16.4589 27.346 15.7029 27.654 14.8069 27.654C13.9109 27.654 13.1549 27.346 12.5389 26.73C11.9229 26.086 11.6149 25.316 11.6149 24.42C11.6149 23.524 11.9229 22.768 12.5389 22.152C13.1549 21.508 13.9109 21.186 14.8069 21.186C15.7029 21.186 16.4589 21.508 17.0749 22.152C17.7189 22.768 18.0409 23.524 18.0409 24.42ZM41.2478 34.752C41.1918 34.752 41.1218 34.738 41.0378 34.71C40.9538 34.71 40.8698 34.71 40.7858 34.71C40.6458 34.71 40.4498 34.71 40.1978 34.71C39.9458 34.71 39.7078 34.696 39.4838 34.668C39.0078 34.64 38.6018 34.514 38.2658 34.29C37.9298 34.038 37.6918 33.744 37.5518 33.408L30.4958 11.736C30.3558 11.148 30.4258 10.63 30.7058 10.182C31.0138 9.706 31.4898 9.356 32.1338 9.132C32.3298 9.076 32.5258 9.034 32.7218 9.006C32.9178 8.978 33.0858 8.964 33.2258 8.964C34.0938 8.964 34.6958 9.44 35.0318 10.392L38.0978 19.926L41.3318 29.922L47.6318 10.392C47.9398 9.412 48.4998 8.922 49.3118 8.922C49.6198 8.922 50.0118 8.992 50.4878 9.132C51.2158 9.328 51.7198 9.664 51.9998 10.14C52.2798 10.588 52.3218 11.12 52.1258 11.736L45.1118 33.408C44.8598 34.192 44.2018 34.612 43.1378 34.668C43.0818 34.668 43.0118 34.668 42.9278 34.668C42.8718 34.696 42.8158 34.71 42.7598 34.71C42.5358 34.738 42.3398 34.752 42.1718 34.752C42.0038 34.752 41.8498 34.752 41.7098 34.752H41.2478ZM61.0197 32.736C61.0197 34.08 60.2497 34.752 58.7097 34.752C57.1417 34.752 56.3577 34.08 56.3577 32.736V11.064C56.3577 9.72 57.1417 9.048 58.7097 9.048C60.2497 9.048 61.0197 9.72 61.0197 11.064V32.736ZM61.9017 3.756C61.9017 4.652 61.5937 5.408 60.9777 6.024C60.3617 6.64 59.6057 6.948 58.7097 6.948C57.8137 6.948 57.0437 6.64 56.3997 6.024C55.7837 5.408 55.4757 4.652 55.4757 3.756C55.4757 2.832 55.7837 2.062 56.3997 1.446C57.0437 0.829999 57.8137 0.521999 58.7097 0.521999C59.6057 0.521999 60.3617 0.829999 60.9777 1.446C61.5937 2.062 61.9017 2.832 61.9017 3.756ZM73.6177 34.5C72.7497 34.5 71.9237 34.388 71.1397 34.164C70.3557 33.912 69.5997 33.562 68.8717 33.114V33.156C67.4997 32.288 66.8137 30.692 66.8137 28.368V26.31C66.8137 25.162 67.0097 24.168 67.4017 23.328C67.8217 22.46 68.3957 21.774 69.1237 21.27H69.0817C69.7817 20.794 70.5237 20.444 71.3077 20.22C72.0917 19.968 72.8477 19.842 73.5757 19.842H82.8577V15.936C82.8577 15.236 82.6337 14.606 82.1857 14.046C81.7657 13.458 81.0377 13.164 80.0017 13.164H75.0877C74.0237 13.164 73.2817 13.43 72.8617 13.962C72.4697 14.466 72.2737 15.068 72.2737 15.768V16.104C72.2737 17.56 71.4897 18.288 69.9217 18.288C68.3537 18.288 67.5697 17.56 67.5697 16.104V15.726C67.5697 14.578 67.7657 13.612 68.1577 12.828C68.5777 12.044 69.1377 11.386 69.8377 10.854H69.7957C70.5237 10.378 71.2797 9.986 72.0637 9.678C72.8757 9.37 73.6457 9.216 74.3737 9.216H80.7577C81.4577 9.216 82.1997 9.37 82.9837 9.678C83.7957 9.986 84.5517 10.378 85.2517 10.854H85.2097C85.9377 11.386 86.4977 12.086 86.8897 12.954C87.2817 13.794 87.4777 14.774 87.4777 15.894V32.736C87.4777 34.08 86.7077 34.752 85.1677 34.752C84.8597 34.752 84.5657 34.738 84.2857 34.71C84.0337 34.682 83.7957 34.612 83.5717 34.5C83.3757 34.36 83.2077 34.178 83.0677 33.954C82.9557 33.702 82.8997 33.38 82.8997 32.988L82.8577 23.79H74.3737C73.7577 23.79 73.2817 23.86 72.9457 24C72.6097 24.14 72.3437 24.364 72.1477 24.672C71.9237 25.148 71.7557 25.526 71.6437 25.806C71.5597 26.058 71.5177 26.352 71.5177 26.688V28.326C71.5177 29.054 71.7277 29.614 72.1477 30.006C72.5957 30.37 73.3517 30.552 74.4157 30.552H79.1197C80.1557 30.552 80.6737 31.21 80.6737 32.526C80.6737 33.086 80.5477 33.562 80.2957 33.954C80.0437 34.318 79.6517 34.5 79.1197 34.5H73.6177ZM98.8325 13.164V28.452C98.8325 29.18 98.9865 29.74 99.2945 30.132C99.6025 30.524 100.26 30.72 101.268 30.72H102.36C103.452 30.72 103.97 31.364 103.914 32.652C103.914 33.968 103.396 34.626 102.36 34.626H100.974C100.078 34.626 99.2385 34.514 98.4545 34.29C97.6705 34.038 96.9145 33.688 96.1865 33.24V33.282C94.8145 32.386 94.1285 30.79 94.1285 28.494V13.164H92.4905C91.4825 13.164 90.9505 12.506 90.8945 11.19C90.8945 9.874 91.4265 9.216 92.4905 9.216H94.1285V4.722C94.1285 3.378 94.9265 2.706 96.5225 2.706C98.0625 2.706 98.8325 3.378 98.8325 4.722V9.216H102.318C103.41 9.216 103.928 9.874 103.872 11.19C103.872 12.506 103.354 13.164 102.318 13.164H98.8325ZM112.729 32.736C112.729 34.08 111.959 34.752 110.419 34.752C108.851 34.752 108.067 34.08 108.067 32.736V11.064C108.067 9.72 108.851 9.048 110.419 9.048C111.959 9.048 112.729 9.72 112.729 11.064V32.736ZM113.611 3.756C113.611 4.652 113.303 5.408 112.687 6.024C112.071 6.64 111.315 6.948 110.419 6.948C109.523 6.948 108.753 6.64 108.109 6.024C107.493 5.408 107.185 4.652 107.185 3.756C107.185 2.832 107.493 2.062 108.109 1.446C108.753 0.829999 109.523 0.521999 110.419 0.521999C111.315 0.521999 112.071 0.829999 112.687 1.446C113.303 2.062 113.611 2.832 113.611 3.756ZM132.425 9.216C133.153 9.216 133.895 9.37 134.651 9.678C135.435 9.986 136.191 10.378 136.919 10.854H136.877C137.605 11.386 138.165 12.086 138.557 12.954C138.949 13.794 139.145 14.774 139.145 15.894V27.822C139.145 30.118 138.389 31.812 136.877 32.904C135.393 33.968 133.909 34.5 132.425 34.5H125.705C124.977 34.5 124.235 34.374 123.479 34.122C122.723 33.87 121.981 33.464 121.253 32.904C119.741 31.84 118.985 30.146 118.985 27.822V15.894C118.985 14.774 119.181 13.794 119.573 12.954C119.965 12.086 120.525 11.386 121.253 10.854H121.211C121.911 10.378 122.653 9.986 123.437 9.678C124.221 9.37 124.977 9.216 125.705 9.216H132.425ZM131.669 30.552C132.705 30.552 133.433 30.258 133.853 29.67C134.301 29.082 134.525 28.452 134.525 27.78V15.936C134.525 15.236 134.301 14.606 133.853 14.046C133.433 13.458 132.705 13.164 131.669 13.164H126.461C125.425 13.164 124.683 13.458 124.235 14.046C123.815 14.606 123.605 15.236 123.605 15.936V27.78C123.605 28.452 123.815 29.082 124.235 29.67C124.683 30.258 125.425 30.552 126.461 30.552H131.669ZM149.496 32.736C149.496 34.08 148.726 34.752 147.186 34.752C145.646 34.752 144.876 34.08 144.876 32.736V15.852C144.876 14.704 145.058 13.71 145.422 12.87C145.786 12.03 146.36 11.344 147.144 10.812C148.628 9.748 150.112 9.216 151.596 9.216H158.358C159.786 9.216 161.27 9.748 162.81 10.812C164.322 11.876 165.078 13.556 165.078 15.852V32.736C165.078 34.08 164.308 34.752 162.768 34.752C161.228 34.752 160.458 34.08 160.458 32.736V16.23C160.458 15.502 160.234 14.802 159.786 14.13L159.828 14.172C159.464 13.5 158.722 13.164 157.602 13.164H152.352C151.204 13.164 150.448 13.5 150.084 14.172C149.692 14.76 149.496 15.446 149.496 16.23V32.736Z" fill="black"/>
<path d="M188.738 22.11C188.738 21.466 188.5 20.85 188.024 20.262C187.548 19.646 186.708 19.296 185.504 19.212C184.72 20.164 183.768 20.64 182.648 20.64C181.696 20.64 180.884 20.304 180.212 19.632C179.54 18.96 179.204 18.134 179.204 17.154C179.204 16.174 179.54 15.348 180.212 14.676C180.884 14.004 181.696 13.668 182.648 13.668C183.152 13.668 183.642 13.808 184.118 14.088C184.622 14.368 185.07 14.704 185.462 15.096C186.078 15.068 186.554 14.97 186.89 14.802C187.226 14.634 187.464 14.438 187.604 14.214C187.772 13.962 187.87 13.682 187.898 13.374C187.926 13.066 187.94 12.758 187.94 12.45V8.208C187.94 7.508 187.716 6.864 187.268 6.276C186.848 5.688 186.12 5.394 185.084 5.394H176.306L176.264 33.114C176.264 33.674 175.998 34.108 175.466 34.416C174.962 34.696 174.402 34.836 173.786 34.836C172.134 34.836 171.308 34.164 171.308 32.82V3.672C171.308 2.664 171.56 1.992 172.064 1.656C172.596 1.32 173.226 1.152 173.954 1.152H186.134C186.862 1.152 187.632 1.292 188.444 1.572C189.284 1.852 190.068 2.23 190.796 2.706H190.754C191.482 3.238 192.014 3.938 192.35 4.806C192.714 5.674 192.896 6.682 192.896 7.83V12.576C192.896 13.696 192.658 14.62 192.182 15.348C191.706 16.048 191.202 16.608 190.67 17.028C191.034 17.252 191.384 17.49 191.72 17.742C192.056 17.966 192.336 18.218 192.56 18.498C192.924 18.89 193.204 19.352 193.4 19.884C193.624 20.416 193.736 21.046 193.736 21.774V27.78C193.736 30.076 192.84 31.77 191.048 32.862C190.152 33.422 189.298 33.842 188.486 34.122C187.702 34.402 186.918 34.542 186.134 34.542H179.918C179.442 34.542 179.064 34.346 178.784 33.954C178.532 33.562 178.406 33.044 178.406 32.4C178.406 31 178.994 30.3 180.17 30.3H185.924C186.96 30.3 187.688 30.006 188.108 29.418C188.528 28.83 188.738 28.172 188.738 27.444V22.11ZM213.501 9.216C214.229 9.216 214.971 9.37 215.727 9.678C216.511 9.986 217.267 10.378 217.995 10.854H217.953C218.681 11.386 219.241 12.086 219.633 12.954C220.025 13.794 220.221 14.774 220.221 15.894V27.822C220.221 30.118 219.465 31.812 217.953 32.904C216.469 33.968 214.985 34.5 213.501 34.5H206.781C206.053 34.5 205.311 34.374 204.555 34.122C203.799 33.87 203.057 33.464 202.329 32.904C200.817 31.84 200.061 30.146 200.061 27.822V15.894C200.061 14.774 200.257 13.794 200.649 12.954C201.041 12.086 201.601 11.386 202.329 10.854H202.287C202.987 10.378 203.729 9.986 204.513 9.678C205.297 9.37 206.053 9.216 206.781 9.216H213.501ZM212.745 30.552C213.781 30.552 214.509 30.258 214.929 29.67C215.377 29.082 215.601 28.452 215.601 27.78V15.936C215.601 15.236 215.377 14.606 214.929 14.046C214.509 13.458 213.781 13.164 212.745 13.164H207.537C206.501 13.164 205.759 13.458 205.311 14.046C204.891 14.606 204.681 15.236 204.681 15.936V27.78C204.681 28.452 204.891 29.082 205.311 29.67C205.759 30.258 206.501 30.552 207.537 30.552H212.745ZM239.392 9.216C240.12 9.216 240.862 9.37 241.618 9.678C242.402 9.986 243.158 10.378 243.886 10.854H243.844C244.572 11.386 245.132 12.086 245.524 12.954C245.916 13.794 246.112 14.774 246.112 15.894V27.822C246.112 30.118 245.356 31.812 243.844 32.904C242.36 33.968 240.876 34.5 239.392 34.5H232.672C231.944 34.5 231.202 34.374 230.446 34.122C229.69 33.87 228.948 33.464 228.22 32.904C226.708 31.84 225.952 30.146 225.952 27.822V15.894C225.952 14.774 226.148 13.794 226.54 12.954C226.932 12.086 227.492 11.386 228.22 10.854H228.178C228.878 10.378 229.62 9.986 230.404 9.678C231.188 9.37 231.944 9.216 232.672 9.216H239.392ZM238.636 30.552C239.672 30.552 240.4 30.258 240.82 29.67C241.268 29.082 241.492 28.452 241.492 27.78V15.936C241.492 15.236 241.268 14.606 240.82 14.046C240.4 13.458 239.672 13.164 238.636 13.164H233.428C232.392 13.164 231.65 13.458 231.202 14.046C230.782 14.606 230.572 15.236 230.572 15.936V27.78C230.572 28.452 230.782 29.082 231.202 29.67C231.65 30.258 232.392 30.552 233.428 30.552H238.636ZM256.463 27.486V32.82C256.463 34.136 255.693 34.794 254.153 34.794C252.613 34.794 251.843 34.136 251.843 32.82V2.916C251.843 1.572 252.613 0.899999 254.153 0.899999C255.693 0.899999 256.463 1.572 256.463 2.916V20.724C257.163 19.884 257.933 18.988 258.773 18.036C259.641 17.056 260.495 16.076 261.335 15.096C262.203 14.088 263.057 13.108 263.897 12.156C264.737 11.176 265.521 10.266 266.249 9.426V9.468C266.753 8.88 267.257 8.586 267.761 8.586C268.041 8.586 268.307 8.656 268.559 8.796C268.839 8.908 269.133 9.076 269.441 9.3H269.399C270.071 9.86 270.407 10.42 270.407 10.98C270.407 11.176 270.365 11.4 270.281 11.652C270.197 11.876 270.057 12.072 269.861 12.24L256.463 27.486ZM270.491 31.686C270.687 32.05 270.785 32.428 270.785 32.82C270.785 33.548 270.365 34.094 269.525 34.458C268.965 34.794 268.461 34.962 268.013 34.962C267.705 34.962 267.411 34.85 267.131 34.626C266.851 34.43 266.627 34.178 266.459 33.87L262.259 25.764C262.007 25.344 261.881 24.924 261.881 24.504C261.881 23.804 262.245 23.216 262.973 22.74C263.169 22.6 263.365 22.474 263.561 22.362C263.785 22.25 264.023 22.166 264.275 22.11C264.583 22.054 264.877 22.11 265.157 22.278C265.437 22.446 265.675 22.67 265.871 22.95L270.491 31.686ZM288.307 19.8C289.007 19.8 289.749 19.968 290.533 20.304C291.345 20.612 292.101 21.004 292.801 21.48H292.759C293.487 22.012 294.047 22.698 294.439 23.538C294.831 24.378 295.027 25.386 295.027 26.562V27.822C295.027 30.118 294.271 31.812 292.759 32.904C292.031 33.464 291.289 33.87 290.533 34.122C289.777 34.374 289.035 34.5 288.307 34.5H281.167C280.439 34.5 279.697 34.374 278.941 34.122C278.185 33.87 277.443 33.464 276.715 32.904C275.203 31.84 274.447 30.146 274.447 27.822V27.318C274.447 26.114 275.217 25.526 276.757 25.554C278.325 25.554 279.109 26.142 279.109 27.318V27.78C279.109 28.452 279.319 29.082 279.739 29.67C280.159 30.258 280.901 30.552 281.965 30.552H287.509C288.573 30.552 289.315 30.258 289.735 29.67C290.155 29.082 290.365 28.452 290.365 27.78V26.604C290.365 26.24 290.309 25.89 290.197 25.554C290.113 25.218 289.959 24.924 289.735 24.672C289.511 24.392 289.217 24.168 288.853 24C288.489 23.832 288.041 23.748 287.509 23.748H281.377C279.949 23.748 278.451 23.244 276.883 22.236C275.399 21.284 274.657 19.646 274.657 17.322V15.894C274.657 14.774 274.853 13.794 275.245 12.954C275.637 12.086 276.197 11.386 276.925 10.854H276.883C277.583 10.378 278.325 9.986 279.109 9.678C279.893 9.37 280.649 9.216 281.377 9.216H288.097C288.825 9.216 289.567 9.37 290.323 9.678C291.107 9.986 291.863 10.378 292.591 10.854H292.549C293.277 11.386 293.837 12.086 294.229 12.954C294.621 13.794 294.817 14.774 294.817 15.894V16.272C294.817 16.86 294.621 17.294 294.229 17.574C293.837 17.826 293.263 17.966 292.507 17.994C290.967 18.022 290.197 17.448 290.197 16.272V15.936C290.197 15.236 289.973 14.606 289.525 14.046C289.105 13.458 288.377 13.164 287.341 13.164H282.133C281.097 13.164 280.355 13.458 279.907 14.046C279.487 14.606 279.277 15.236 279.277 15.936V16.944C279.277 17.672 279.487 18.33 279.907 18.918C280.355 19.506 281.097 19.8 282.133 19.8H288.307Z" fill="#7D32FA"/>
</svg>
