<?xml version="1.0" encoding="UTF-8"?>
<svg xmlns="http://www.w3.org/2000/svg" xmlns:xlink="http://www.w3.org/1999/xlink" viewBox="0 0 240 240" width="240px" height="240px">
<defs>
<linearGradient id="linear0" gradientUnits="userSpaceOnUse" x1="37.055248" y1="29.78467" x2="146.192825" y2="138.922256" gradientTransform="matrix(1.395349,0,0,1.395349,0,0)">
<stop offset="0" style="stop-color:rgb(16.470589%,64.313728%,95.686275%);stop-opacity:1;"/>
<stop offset="1" style="stop-color:rgb(49.019608%,20.784314%,96.078432%);stop-opacity:1;"/>
</linearGradient>
</defs>
<g id="surface210015618">
<path style=" stroke:none;fill-rule:nonzero;fill:url(#linear0);" d="M 230.523438 55.101562 C 222.769531 58.535156 214.429688 60.824219 205.628906 61.910156 C 214.574219 56.601562 221.460938 48.128906 224.691406 38.121094 C 216.320312 43.023438 207.046875 46.628906 197.179688 48.53125 C 189.300781 40.179688 178.058594 35 165.609375 35 C 141.695312 35 122.304688 54.214844 122.304688 77.910156 C 122.304688 81.265625 122.699219 84.53125 123.433594 87.699219 C 87.453125 85.894531 55.539062 68.789062 34.191406 42.828125 C 30.441406 49.175781 28.328125 56.601562 28.328125 64.441406 C 28.328125 79.335938 35.953125 92.449219 47.585938 100.175781 C 40.484375 99.960938 33.804688 97.984375 27.953125 94.816406 C 27.953125 94.945312 27.953125 95.136719 27.953125 95.320312 C 27.953125 116.136719 42.886719 133.46875 62.675781 137.414062 C 59.058594 138.40625 55.234375 138.953125 51.296875 138.953125 C 48.5 138.953125 45.773438 138.640625 43.136719 138.164062 C 48.644531 155.175781 64.628906 167.609375 83.570312 167.980469 C 68.75 179.46875 50.085938 186.351562 29.789062 186.351562 C 26.285156 186.351562 22.855469 186.148438 19.464844 185.738281 C 38.648438 197.886719 61.414062 205 85.855469 205 C 165.488281 205 209.058594 139.605469 209.058594 82.871094 C 209.058594 81.011719 209 79.160156 208.914062 77.328125 C 217.414062 71.324219 224.738281 63.753906 230.523438 55.101562 "/>
</g>
</svg>
